<svg width="3539" height="1240" viewBox="0 0 3539 1240" fill="none" xmlns="http://www.w3.org/2000/svg">
<path d="M422 923H80V396H791V686H422V923ZM1160 370H80V80H1160V370Z" fill="white"/>
<path d="M422 1160H80V949H422V1160ZM791 1160H449V712H791V1160ZM1160 1160H818V396H1160V1160Z" fill="white"/>
<path d="M1490.46 534.242V581.138H1338.38V534.242H1490.46ZM1376.4 791.5V509.956C1376.4 492.649 1379.97 478.246 1387.12 466.745C1394.38 455.244 1404.09 446.647 1416.26 440.952C1428.43 435.258 1441.94 432.41 1456.79 432.41C1467.29 432.41 1476.61 433.248 1484.76 434.923C1492.91 436.598 1498.94 438.105 1502.85 439.445L1490.79 486.341C1488.22 485.559 1484.99 484.778 1481.08 483.996C1477.17 483.103 1472.81 482.656 1468.01 482.656C1456.74 482.656 1448.75 485.392 1444.06 490.863C1439.48 496.223 1437.2 503.927 1437.2 513.976V791.5H1376.4ZM1542.65 791.5V534.242H1603.28V791.5H1542.65ZM1573.14 497.73C1563.53 497.73 1555.27 494.548 1548.35 488.183C1541.43 481.707 1537.97 473.947 1537.97 464.903C1537.97 455.747 1541.43 447.987 1548.35 441.622C1555.27 435.146 1563.53 431.908 1573.14 431.908C1582.85 431.908 1591.11 435.146 1597.93 441.622C1604.85 447.987 1608.31 455.747 1608.31 464.903C1608.31 473.947 1604.85 481.707 1597.93 488.183C1591.11 494.548 1582.85 497.73 1573.14 497.73ZM1730.98 640.763V791.5H1670.35V534.242H1728.3V577.956H1731.31C1737.23 563.552 1746.67 552.107 1759.62 543.621C1772.68 535.135 1788.82 530.892 1808.02 530.892C1825.77 530.892 1841.24 534.688 1854.41 542.281C1867.7 549.874 1877.97 560.872 1885.23 575.276C1892.6 589.68 1896.23 607.154 1896.12 627.699V791.5H1835.49V637.078C1835.49 619.883 1831.02 606.428 1822.09 596.714C1813.27 587 1801.04 582.143 1785.41 582.143C1774.8 582.143 1765.37 584.488 1757.11 589.177C1748.95 593.755 1742.53 600.399 1737.84 609.108C1733.27 617.817 1730.98 628.369 1730.98 640.763ZM2036.5 796.692C2020.2 796.692 2005.51 793.789 1992.45 787.983C1979.5 782.065 1969.23 773.356 1961.63 761.855C1954.15 750.354 1950.41 736.174 1950.41 719.314C1950.41 704.798 1953.09 692.795 1958.45 683.304C1963.81 673.813 1971.12 666.221 1980.39 660.526C1989.66 654.832 2000.1 650.533 2011.71 647.63C2023.43 644.615 2035.55 642.438 2048.06 641.098C2063.13 639.535 2075.36 638.139 2084.73 636.911C2094.11 635.571 2100.92 633.561 2105.17 630.881C2109.52 628.09 2111.7 623.791 2111.7 617.985V616.98C2111.7 604.363 2107.96 594.593 2100.48 587.67C2093 580.747 2082.22 577.286 2068.15 577.286C2053.3 577.286 2041.52 580.524 2032.81 587C2024.22 593.476 2018.41 601.124 2015.4 609.945L1958.79 601.906C1963.25 586.274 1970.62 573.21 1980.89 562.714C1991.17 552.107 2003.73 544.179 2018.58 538.931C2033.43 533.572 2049.84 530.892 2067.82 530.892C2080.21 530.892 2092.55 532.344 2104.83 535.247C2117.12 538.15 2128.34 542.951 2138.5 549.65C2148.66 556.238 2156.81 565.227 2162.95 576.616C2169.2 588.005 2172.33 602.241 2172.33 619.325V791.5H2114.04V756.16H2112.03C2108.35 763.307 2103.16 770.006 2096.46 776.259C2089.87 782.4 2081.55 787.369 2071.5 791.165C2061.57 794.85 2049.9 796.692 2036.5 796.692ZM2052.24 752.141C2064.41 752.141 2074.96 749.74 2083.9 744.939C2092.83 740.026 2099.7 733.55 2104.5 725.511C2109.41 717.471 2111.87 708.706 2111.87 699.215V668.9C2109.97 670.464 2106.73 671.915 2102.15 673.255C2097.69 674.595 2092.66 675.767 2087.08 676.772C2081.5 677.777 2075.97 678.67 2070.5 679.452C2065.03 680.234 2060.28 680.904 2056.26 681.462C2047.22 682.69 2039.12 684.7 2031.98 687.491C2024.83 690.283 2019.19 694.191 2015.06 699.215C2010.93 704.128 2008.86 710.493 2008.86 718.309C2008.86 729.474 2012.94 737.905 2021.09 743.599C2029.24 749.294 2039.62 752.141 2052.24 752.141ZM2298.64 448.489V791.5H2238.01V448.489H2298.64ZM2403.39 887.972C2395.13 887.972 2387.48 887.302 2380.44 885.962C2373.52 884.734 2367.99 883.282 2363.86 881.607L2377.93 834.376C2386.75 836.944 2394.62 838.173 2401.55 838.061C2408.47 837.949 2414.55 835.772 2419.8 831.529C2425.16 827.398 2429.68 820.475 2433.37 810.761L2438.56 796.86L2345.27 534.242H2409.58L2468.87 728.525H2471.55L2531.01 534.242H2595.49L2492.49 822.652C2487.69 836.275 2481.32 847.943 2473.4 857.657C2465.47 867.483 2455.76 874.964 2444.25 880.1C2432.87 885.348 2419.24 887.972 2403.39 887.972ZM2770.63 534.242V581.138H2622.74V534.242H2770.63ZM2659.25 472.607H2719.88V714.122C2719.88 722.273 2721.11 728.525 2723.56 732.88C2726.13 737.123 2729.48 740.026 2733.61 741.589C2737.74 743.152 2742.32 743.934 2747.35 743.934C2751.14 743.934 2754.6 743.655 2757.73 743.097C2760.97 742.538 2763.43 742.036 2765.1 741.589L2775.32 788.988C2772.08 790.104 2767.45 791.333 2761.42 792.672C2755.5 794.012 2748.24 794.794 2739.64 795.017C2724.46 795.464 2710.78 793.175 2698.61 788.15C2686.44 783.014 2676.78 775.086 2669.63 764.367C2662.6 753.648 2659.14 740.249 2659.25 724.171V472.607ZM2826.05 791.5V534.242H2886.68V791.5H2826.05ZM2856.53 497.73C2846.93 497.73 2838.67 494.548 2831.74 488.183C2824.82 481.707 2821.36 473.947 2821.36 464.903C2821.36 455.747 2824.82 447.987 2831.74 441.622C2838.67 435.146 2846.93 431.908 2856.53 431.908C2866.25 431.908 2874.51 435.146 2881.32 441.622C2888.24 447.987 2891.7 455.747 2891.7 464.903C2891.7 473.947 2888.24 481.707 2881.32 488.183C2874.51 494.548 2866.25 497.73 2856.53 497.73ZM3065.96 796.525C3040.28 796.525 3018.22 790.886 2999.8 779.609C2981.49 768.331 2967.37 752.755 2957.43 732.88C2947.6 712.893 2942.69 689.892 2942.69 663.876C2942.69 637.748 2947.71 614.691 2957.76 594.704C2967.81 574.606 2981.99 558.974 3000.3 547.808C3018.73 536.531 3040.5 530.892 3065.62 530.892C3086.5 530.892 3104.98 534.744 3121.06 542.449C3137.25 550.041 3150.15 560.816 3159.75 574.773C3169.35 588.619 3174.82 604.809 3176.16 623.344H3118.21C3115.87 610.95 3110.29 600.622 3101.47 592.359C3092.76 583.985 3081.09 579.798 3066.46 579.798C3054.07 579.798 3043.18 583.148 3033.8 589.847C3024.42 596.435 3017.11 605.926 3011.86 618.32C3006.72 630.714 3004.16 645.564 3004.16 662.871C3004.16 680.401 3006.72 695.475 3011.86 708.092C3017 720.598 3024.2 730.256 3033.47 737.067C3042.85 743.767 3053.84 747.116 3066.46 747.116C3075.39 747.116 3083.38 745.441 3090.41 742.092C3097.56 738.63 3103.53 733.662 3108.33 727.185C3113.13 720.709 3116.43 712.837 3118.21 703.57H3176.16C3174.71 721.77 3169.35 737.905 3160.09 751.973C3150.82 765.931 3138.2 776.873 3122.23 784.801C3106.27 792.617 3087.51 796.525 3065.96 796.525ZM3433.99 602.241L3378.72 608.271C3377.16 602.688 3374.42 597.44 3370.52 592.527C3366.72 587.614 3361.58 583.65 3355.11 580.635C3348.63 577.621 3340.7 576.113 3331.32 576.113C3318.71 576.113 3308.1 578.849 3299.5 584.32C3291.02 589.791 3286.83 596.881 3286.94 605.591C3286.83 613.072 3289.56 619.157 3295.15 623.847C3300.84 628.536 3310.22 632.388 3323.29 635.403L3367.17 644.782C3391.51 650.03 3409.6 658.349 3421.43 669.738C3433.38 681.127 3439.41 696.033 3439.52 714.457C3439.41 730.647 3434.66 744.939 3425.28 757.333C3416.02 769.615 3403.12 779.218 3386.59 786.14C3370.07 793.063 3351.09 796.525 3329.65 796.525C3298.16 796.525 3272.82 789.937 3253.61 776.761C3234.41 763.474 3222.96 744.995 3219.28 721.323L3278.4 715.629C3281.08 727.241 3286.77 736.006 3295.48 741.924C3304.19 747.842 3315.53 750.801 3329.48 750.801C3343.89 750.801 3355.44 747.842 3364.15 741.924C3372.97 736.006 3377.38 728.693 3377.38 719.984C3377.38 712.614 3374.54 706.529 3368.84 701.728C3363.26 696.926 3354.55 693.242 3342.71 690.674L3298.83 681.462C3274.16 676.326 3255.9 667.672 3244.06 655.502C3232.23 643.219 3226.37 627.699 3226.48 608.94C3226.37 593.085 3230.67 579.351 3239.37 567.739C3248.2 556.015 3260.42 546.971 3276.05 540.606C3291.8 534.13 3309.94 530.892 3330.49 530.892C3360.63 530.892 3384.36 537.312 3401.67 550.153C3419.09 562.994 3429.86 580.356 3433.99 602.241Z" fill="white"/>
</svg>
