<svg width="32" height="32" viewBox="0 0 32 32" fill="none" xmlns="http://www.w3.org/2000/svg">
<path d="M12.1427 7.26396C12.94 4.93063 16.164 4.85996 17.1093 7.05196L17.1893 7.26529L18.2653 10.412C18.5119 11.1336 18.9104 11.794 19.4339 12.3485C19.9574 12.9031 20.5937 13.3389 21.3 13.6266L21.5893 13.7346L24.736 14.8093C27.0693 15.6066 27.14 18.8306 24.9493 19.776L24.736 19.856L21.5893 20.932C20.8674 21.1784 20.2068 21.5768 19.652 22.1003C19.0972 22.6238 18.6612 23.2602 18.3733 23.9666L18.2653 24.2546L17.1907 27.4026C16.3933 29.736 13.1693 29.8066 12.2253 27.616L12.1427 27.4026L11.068 24.256C10.8216 23.5341 10.4232 22.8734 9.89966 22.3186C9.37615 21.7639 8.73973 21.3278 8.03334 21.04L7.74534 20.932L4.59867 19.8573C2.264 19.06 2.19334 15.836 4.38534 14.892L4.59867 14.8093L7.74534 13.7346C8.46698 13.488 9.12735 13.0896 9.6819 12.5661C10.2365 12.0426 10.6723 11.4062 10.96 10.7L11.068 10.412L12.1427 7.26396ZM25.3333 2.66663C25.5828 2.66663 25.8272 2.7366 26.0389 2.86859C26.2505 3.00058 26.4209 3.1893 26.5307 3.41329L26.5947 3.56929L27.0613 4.93729L28.4307 5.40396C28.6806 5.48889 28.8998 5.64611 29.0603 5.85571C29.2208 6.06531 29.3155 6.31785 29.3324 6.58132C29.3492 6.84479 29.2875 7.10733 29.155 7.33568C29.0224 7.56402 28.8251 7.74788 28.588 7.86396L28.4307 7.92796L27.0627 8.39463L26.596 9.76396C26.5109 10.0139 26.3536 10.2329 26.1439 10.3933C25.9342 10.5537 25.6817 10.6482 25.4182 10.6649C25.1547 10.6816 24.8922 10.6198 24.664 10.4871C24.4357 10.3545 24.252 10.1571 24.136 9.91996L24.072 9.76396L23.6053 8.39596L22.236 7.92929C21.986 7.84437 21.7669 7.68714 21.6064 7.47754C21.4458 7.26794 21.3512 7.0154 21.3343 6.75193C21.3174 6.48846 21.3792 6.22592 21.5117 5.99758C21.6442 5.76923 21.8415 5.58537 22.0787 5.46929L22.236 5.40529L23.604 4.93863L24.0707 3.56929C24.1606 3.30586 24.3307 3.07717 24.5571 2.91529C24.7836 2.75341 25.055 2.66646 25.3333 2.66663Z" fill="#1E2939"/>
</svg>
