<svg width="17" height="16" viewBox="0 0 17 16" fill="none" xmlns="http://www.w3.org/2000/svg">
<path d="M6.57134 3.632C6.97001 2.46533 8.58201 2.43 9.05468 3.526L9.09468 3.63266L9.63268 5.206C9.75597 5.56682 9.95521 5.897 10.217 6.17428C10.4787 6.45155 10.7969 6.66947 11.15 6.81333L11.2947 6.86733L12.868 7.40466C14.0347 7.80333 14.07 9.41533 12.9747 9.88799L12.868 9.928L11.2947 10.466C10.9337 10.5892 10.6034 10.7884 10.326 11.0502C10.0486 11.3119 9.83061 11.6301 9.68668 11.9833L9.63268 12.1273L9.09534 13.7013C8.69668 14.868 7.08468 14.9033 6.61268 13.808L6.57134 13.7013L6.03401 12.128C5.9108 11.767 5.71159 11.4367 5.44984 11.1593C5.18808 10.8819 4.86987 10.6639 4.51668 10.52L4.37268 10.466L2.79934 9.92866C1.63201 9.52999 1.59668 7.91799 2.69268 7.44599L2.79934 7.40466L4.37268 6.86733C4.7335 6.74403 5.06368 6.54479 5.34096 6.28304C5.61823 6.02129 5.83615 5.70312 5.98001 5.34999L6.03401 5.206L6.57134 3.632ZM13.1667 1.33333C13.2914 1.33333 13.4136 1.36831 13.5194 1.43431C13.6253 1.5003 13.7105 1.59466 13.7653 1.70666L13.7973 1.78466L14.0307 2.46866L14.7153 2.702C14.8403 2.74446 14.9499 2.82307 15.0302 2.92787C15.1104 3.03267 15.1578 3.15894 15.1662 3.29068C15.1746 3.42241 15.1437 3.55368 15.0775 3.66785C15.0112 3.78202 14.9126 3.87395 14.794 3.93199L14.7153 3.964L14.0313 4.19733L13.798 4.88199C13.7555 5.00695 13.6768 5.11646 13.572 5.19666C13.4671 5.27685 13.3408 5.32412 13.2091 5.33248C13.0774 5.34083 12.9461 5.30989 12.832 5.24358C12.7179 5.17727 12.626 5.07857 12.568 4.96L12.536 4.88199L12.3027 4.19799L11.618 3.96466C11.493 3.9222 11.3835 3.84359 11.3032 3.73879C11.2229 3.63399 11.1756 3.50772 11.1672 3.37598C11.1587 3.24425 11.1896 3.11297 11.2559 2.9988C11.3221 2.88463 11.4208 2.7927 11.5393 2.73466L11.618 2.70266L12.302 2.46933L12.5353 1.78466C12.5803 1.65295 12.6653 1.5386 12.7786 1.45766C12.8918 1.37672 13.0275 1.33324 13.1667 1.33333Z" fill="#615FFF"/>
</svg>
