<svg width="32" height="32" viewBox="0 0 32 32" fill="none" xmlns="http://www.w3.org/2000/svg">
<path d="M26.6667 18.3333C26.6667 18.0681 26.5613 17.8137 26.3738 17.6262C26.1862 17.4387 25.9319 17.3333 25.6667 17.3333H21.6667C21.4015 17.3333 21.1471 17.4387 20.9596 17.6262C20.772 17.8137 20.6667 18.0681 20.6667 18.3333V27.3333H18.6667V5.66663C18.6667 4.69596 18.664 4.06663 18.6027 3.60529C18.544 3.17196 18.4493 3.03596 18.3733 2.95996C18.2973 2.88396 18.1613 2.78929 17.728 2.73063C17.2653 2.66929 16.6373 2.66663 15.6667 2.66663C14.696 2.66663 14.0667 2.66929 13.6053 2.73063C13.172 2.78929 13.036 2.88396 12.96 2.95996C12.884 3.03596 12.7893 3.17196 12.7307 3.60529C12.6693 4.06796 12.6667 4.69596 12.6667 5.66663V27.3333H10.6667V11.6666C10.6667 11.4014 10.5613 11.1471 10.3738 10.9595C10.1862 10.772 9.93189 10.6666 9.66667 10.6666H5.66667C5.40145 10.6666 5.1471 10.772 4.95956 10.9595C4.77203 11.1471 4.66667 11.4014 4.66667 11.6666V27.3333H2.33334C2.06812 27.3333 1.81377 27.4387 1.62623 27.6262C1.43869 27.8137 1.33334 28.0681 1.33334 28.3333C1.33334 28.5985 1.43869 28.8529 1.62623 29.0404C1.81377 29.2279 2.06812 29.3333 2.33334 29.3333H29C29.2652 29.3333 29.5196 29.2279 29.7071 29.0404C29.8946 28.8529 30 28.5985 30 28.3333C30 28.0681 29.8946 27.8137 29.7071 27.6262C29.5196 27.4387 29.2652 27.3333 29 27.3333H26.6667V18.3333Z" fill="#99A1AF"/>
</svg>
