<svg width="32" height="32" viewBox="0 0 32 32" fill="none" xmlns="http://www.w3.org/2000/svg">
<path d="M16 2.66663L16.156 2.67596C16.4536 2.71106 16.7307 2.8454 16.9426 3.05731C17.1546 3.26922 17.2889 3.54634 17.324 3.84396L17.3333 3.99996V9.33329L17.34 9.53329C17.3877 10.1682 17.661 10.7651 18.1105 11.216C18.5599 11.6669 19.1559 11.9422 19.7907 11.992L20 12H25.3333L25.4893 12.0093C25.787 12.0444 26.0641 12.1787 26.276 12.3906C26.4879 12.6026 26.6222 12.8797 26.6573 13.1773L26.6667 13.3333V25.3333C26.6667 26.3536 26.2769 27.3353 25.577 28.0776C24.877 28.82 23.9199 29.2668 22.9013 29.3266L22.6667 29.3333H9.33333C8.31305 29.3334 7.33131 28.9435 6.58898 28.2436C5.84665 27.5436 5.39985 26.5865 5.34 25.568L5.33333 25.3333V6.66663C5.33327 5.64634 5.7231 4.66461 6.42304 3.92228C7.12298 3.17995 8.08014 2.73315 9.09866 2.67329L9.33333 2.66663H16Z" fill="#99A1AF"/>
<path d="M25.3333 9.33332H20L19.9987 3.99866L25.3333 9.33332Z" fill="#99A1AF"/>
</svg>
