<svg width="28" height="28" viewBox="0 0 28 28" fill="none" xmlns="http://www.w3.org/2000/svg">
<path d="M13.7531 25.2155C20.0832 25.2155 25.2147 20.0839 25.2147 13.7539C25.2147 7.42378 20.0832 2.29224 13.7531 2.29224C7.42305 2.29224 2.2915 7.42378 2.2915 13.7539C2.2915 20.0839 7.42305 25.2155 13.7531 25.2155Z" stroke="#87C054" stroke-width="2.29232" stroke-linecap="round" stroke-linejoin="round"/>
<path d="M18.3392 9.16895H11.4622C10.8543 9.16895 10.2712 9.41046 9.84133 9.84035C9.41143 10.2702 9.16992 10.8533 9.16992 11.4613C9.16992 12.0692 9.41143 12.6523 9.84133 13.0822C10.2712 13.5121 10.8543 13.7536 11.4622 13.7536H16.0469C16.6549 13.7536 17.2379 13.9951 17.6678 14.425C18.0977 14.8549 18.3392 15.438 18.3392 16.0459C18.3392 16.6539 18.0977 17.2369 17.6678 17.6668C17.2379 18.0967 16.6549 18.3382 16.0469 18.3382H9.16992" stroke="#87C054" stroke-width="2.29232" stroke-linecap="round" stroke-linejoin="round"/>
<path d="M13.7549 20.6311V6.8772" stroke="#87C054" stroke-width="2.29232" stroke-linecap="round" stroke-linejoin="round"/>
</svg>
