<svg width="17" height="16" viewBox="0 0 17 16" fill="none" xmlns="http://www.w3.org/2000/svg">
<g clip-path="url(#clip0_3318_251)">
<path d="M8.5 16C6.37827 16 4.34344 15.1571 2.84315 13.6569C1.34285 12.1566 0.5 10.1217 0.5 8C0.5 5.87827 1.34285 3.84344 2.84315 2.34315C4.34344 0.842855 6.37827 0 8.5 0C10.6217 0 12.6566 0.842855 14.1569 2.34315C15.6571 3.84344 16.5 5.87827 16.5 8C16.5 10.1217 15.6571 12.1566 14.1569 13.6569C12.6566 15.1571 10.6217 16 8.5 16ZM10.1 5.6C10.1 5.824 9.932 6.24 9.764 6.4L8.5 7.664C8.044 8.128 7.7 8.944 7.7 9.6V10.4H9.3V9.6C9.3 9.368 9.468 8.96 9.636 8.8L10.9 7.536C11.356 7.072 11.7 6.256 11.7 5.6C11.7 4.75131 11.3629 3.93737 10.7627 3.33726C10.1626 2.73714 9.34869 2.4 8.5 2.4C7.65131 2.4 6.83737 2.73714 6.23726 3.33726C5.63714 3.93737 5.3 4.75131 5.3 5.6H6.9C6.9 5.17565 7.06857 4.76869 7.36863 4.46863C7.66869 4.16857 8.07565 4 8.5 4C8.92435 4 9.33131 4.16857 9.63137 4.46863C9.93143 4.76869 10.1 5.17565 10.1 5.6ZM7.7 12V13.6H9.3V12H7.7Z" fill="#615FFF"/>
</g>
<defs>
<clipPath id="clip0_3318_251">
<rect width="16" height="16" fill="white" transform="translate(0.5)"/>
</clipPath>
</defs>
</svg>
