<svg width="17" height="16" viewBox="0 0 17 16" fill="none" xmlns="http://www.w3.org/2000/svg">
<g clip-path="url(#clip0_3306_93)">
<path d="M13.125 1.49012e-08C13.725 1.49012e-08 14.3 0.2375 14.7219 0.6625L15.8375 1.77813C16.2625 2.2 16.5 2.775 16.5 3.375C16.5 3.975 16.2625 4.55 15.8375 4.97188L14.4344 6.375L10.125 2.06562L11.5281 0.6625C11.95 0.2375 12.525 1.49012e-08 13.125 1.49012e-08ZM2.34065 9.84688L9.06565 3.125L13.375 7.43437L6.65315 14.1594C6.31878 14.4938 5.90003 14.7375 5.44378 14.8656L1.45003 15.9719C1.19065 16.0438 0.9094 15.9719 0.718775 15.7781C0.52815 15.5844 0.45315 15.3062 0.525025 15.0469L1.63753 11.0562C1.76565 10.6 2.00628 10.1844 2.34378 9.84688H2.34065ZM7.54378 2.525L3.02503 7.04375L0.86565 4.88438C0.37815 4.39687 0.37815 3.60625 0.86565 3.11562L3.61565 0.365625C4.10315 -0.121875 4.89378 -0.121875 5.3844 0.365625L5.56878 0.55L3.8094 2.30938C3.56565 2.55313 3.56565 2.95 3.8094 3.19375C4.05315 3.4375 4.45003 3.4375 4.69378 3.19375L6.45315 1.43438L7.54378 2.525ZM13.975 8.95625L15.0656 10.0469L13.3063 11.8062C13.0625 12.05 13.0625 12.4469 13.3063 12.6906C13.55 12.9344 13.9469 12.9344 14.1906 12.6906L15.95 10.9312L16.1344 11.1156C16.6219 11.6031 16.6219 12.3937 16.1344 12.8844L13.3844 15.6344C12.8969 16.1219 12.1063 16.1219 11.6157 15.6344L9.45627 13.475L13.975 8.95625Z" fill="#615FFF"/>
</g>
<defs>
<clipPath id="clip0_3306_93">
<rect width="16" height="16" fill="white" transform="translate(0.5)"/>
</clipPath>
</defs>
</svg>
