<svg width="40" height="40" viewBox="0 0 40 40" fill="none" xmlns="http://www.w3.org/2000/svg">
<mask id="mask0_778_620" style="mask-type:alpha" maskUnits="userSpaceOnUse" x="0" y="0" width="40" height="40">
<rect width="40" height="40" fill="#D9D9D9"/>
</mask>
<g mask="url(#mask0_778_620)">
<path d="M16.25 35C14.8333 35 13.6111 34.5069 12.5833 33.5208C11.5556 32.5347 10.9722 31.3472 10.8333 29.9583C9.16667 29.7361 7.77778 29 6.66667 27.75C5.55556 26.5 5 25.0278 5 23.3333C5 22.75 5.07639 22.1736 5.22917 21.6042C5.38194 21.0347 5.61111 20.5 5.91667 20C5.61111 19.5 5.38194 18.9722 5.22917 18.4167C5.07639 17.8611 5 17.2778 5 16.6667C5 14.9722 5.55556 13.5069 6.66667 12.2708C7.77778 11.0347 9.15278 10.3056 10.7917 10.0833C10.875 8.66667 11.4444 7.46528 12.5 6.47917C13.5556 5.49306 14.8056 5 16.25 5C16.9722 5 17.6458 5.13889 18.2708 5.41667C18.8958 5.69444 19.4722 6.06944 20 6.54167C20.5 6.06944 21.0694 5.69444 21.7083 5.41667C22.3472 5.13889 23.0278 5 23.75 5C25.1944 5 26.4375 5.48611 27.4792 6.45833C28.5208 7.43056 29.0833 8.625 29.1667 10.0417C30.8056 10.2639 32.1875 11 33.3125 12.25C34.4375 13.5 35 14.9722 35 16.6667C35 17.2778 34.9236 17.8611 34.7708 18.4167C34.6181 18.9722 34.3889 19.5 34.0833 20C34.3889 20.5 34.6181 21.0347 34.7708 21.6042C34.9236 22.1736 35 22.75 35 23.3333C35 25.0556 34.4375 26.5347 33.3125 27.7708C32.1875 29.0069 30.7917 29.7361 29.125 29.9583C28.9861 31.3472 28.4097 32.5347 27.3958 33.5208C26.3819 34.5069 25.1667 35 23.75 35C23.0556 35 22.3819 34.8681 21.7292 34.6042C21.0764 34.3403 20.5 33.9722 20 33.5C19.4722 33.9722 18.8889 34.3403 18.25 34.6042C17.6111 34.8681 16.9444 35 16.25 35ZM21.6667 10.4167V29.5833C21.6667 30.1667 21.8681 30.6597 22.2708 31.0625C22.6736 31.4653 23.1667 31.6667 23.75 31.6667C24.3056 31.6667 24.7847 31.4444 25.1875 31C25.5903 30.5556 25.8056 30.0556 25.8333 29.5C25.25 29.2778 24.7153 28.9792 24.2292 28.6042C23.7431 28.2292 23.3056 27.7778 22.9167 27.25C22.6389 26.8611 22.5347 26.4444 22.6042 26C22.6736 25.5556 22.9028 25.1944 23.2917 24.9167C23.6806 24.6389 24.0972 24.5347 24.5417 24.6042C24.9861 24.6736 25.3472 24.9028 25.625 25.2917C25.9306 25.7361 26.3194 26.0764 26.7917 26.3125C27.2639 26.5486 27.7778 26.6667 28.3333 26.6667C29.25 26.6667 30.0347 26.3403 30.6875 25.6875C31.3403 25.0347 31.6667 24.25 31.6667 23.3333C31.6667 23.1944 31.6597 23.0556 31.6458 22.9167C31.6319 22.7778 31.5972 22.6389 31.5417 22.5C31.0694 22.7778 30.5625 22.9861 30.0208 23.125C29.4792 23.2639 28.9167 23.3333 28.3333 23.3333C27.8611 23.3333 27.4653 23.1736 27.1458 22.8542C26.8264 22.5347 26.6667 22.1389 26.6667 21.6667C26.6667 21.1944 26.8264 20.7986 27.1458 20.4792C27.4653 20.1597 27.8611 20 28.3333 20C29.25 20 30.0347 19.6736 30.6875 19.0208C31.3403 18.3681 31.6667 17.5833 31.6667 16.6667C31.6667 15.75 31.3403 14.9722 30.6875 14.3333C30.0347 13.6944 29.25 13.3611 28.3333 13.3333C28.0278 13.8333 27.6319 14.2708 27.1458 14.6458C26.6597 15.0208 26.125 15.3194 25.5417 15.5417C25.0972 15.7083 24.6667 15.6944 24.25 15.5C23.8333 15.3056 23.5556 14.9861 23.4167 14.5417C23.2778 14.0972 23.2986 13.6667 23.4792 13.25C23.6597 12.8333 23.9722 12.5556 24.4167 12.4167C24.8333 12.2778 25.1736 12.0278 25.4375 11.6667C25.7014 11.3056 25.8333 10.8889 25.8333 10.4167C25.8333 9.83333 25.6319 9.34028 25.2292 8.9375C24.8264 8.53472 24.3333 8.33333 23.75 8.33333C23.1667 8.33333 22.6736 8.53472 22.2708 8.9375C21.8681 9.34028 21.6667 9.83333 21.6667 10.4167ZM18.3333 29.5833V10.4167C18.3333 9.83333 18.1319 9.34028 17.7292 8.9375C17.3264 8.53472 16.8333 8.33333 16.25 8.33333C15.6667 8.33333 15.1736 8.53472 14.7708 8.9375C14.3681 9.34028 14.1667 9.83333 14.1667 10.4167C14.1667 10.8611 14.2917 11.2708 14.5417 11.6458C14.7917 12.0208 15.125 12.2778 15.5417 12.4167C15.9861 12.5556 16.3056 12.8333 16.5 13.25C16.6944 13.6667 16.7222 14.0972 16.5833 14.5417C16.4167 14.9861 16.125 15.3056 15.7083 15.5C15.2917 15.6944 14.8611 15.7083 14.4167 15.5417C13.8333 15.3194 13.2986 15.0208 12.8125 14.6458C12.3264 14.2708 11.9306 13.8333 11.625 13.3333C10.7361 13.3611 9.96528 13.7014 9.3125 14.3542C8.65972 15.0069 8.33333 15.7778 8.33333 16.6667C8.33333 17.5833 8.65972 18.3681 9.3125 19.0208C9.96528 19.6736 10.75 20 11.6667 20C12.1389 20 12.5347 20.1597 12.8542 20.4792C13.1736 20.7986 13.3333 21.1944 13.3333 21.6667C13.3333 22.1389 13.1736 22.5347 12.8542 22.8542C12.5347 23.1736 12.1389 23.3333 11.6667 23.3333C11.0833 23.3333 10.5208 23.2639 9.97917 23.125C9.4375 22.9861 8.93056 22.7778 8.45833 22.5C8.40278 22.6389 8.36806 22.7778 8.35417 22.9167C8.34028 23.0556 8.33333 23.1944 8.33333 23.3333C8.33333 24.25 8.65972 25.0347 9.3125 25.6875C9.96528 26.3403 10.75 26.6667 11.6667 26.6667C12.2222 26.6667 12.7361 26.5486 13.2083 26.3125C13.6806 26.0764 14.0694 25.7361 14.375 25.2917C14.6528 24.9028 15.0139 24.6736 15.4583 24.6042C15.9028 24.5347 16.3194 24.6389 16.7083 24.9167C17.0972 25.1944 17.3264 25.5556 17.3958 26C17.4653 26.4444 17.3611 26.8611 17.0833 27.25C16.6944 27.7778 16.25 28.2361 15.75 28.625C15.25 29.0139 14.7083 29.3194 14.125 29.5417C14.1528 30.0972 14.375 30.5903 14.7917 31.0208C15.2083 31.4514 15.6944 31.6667 16.25 31.6667C16.8333 31.6667 17.3264 31.4653 17.7292 31.0625C18.1319 30.6597 18.3333 30.1667 18.3333 29.5833Z" fill="white"/>
</g>
</svg>
