<svg width="32" height="32" viewBox="0 0 32 32" fill="none" xmlns="http://www.w3.org/2000/svg">
<path fill-rule="evenodd" clip-rule="evenodd" d="M16 2.66663V11.3333C16 11.8637 16.2107 12.3724 16.5858 12.7475C16.9609 13.1226 17.4696 13.3333 18 13.3333H26.6667V26.6666C26.6667 27.3739 26.3857 28.0521 25.8856 28.5522C25.3855 29.0523 24.7072 29.3333 24 29.3333H7.99999C7.29275 29.3333 6.61447 29.0523 6.11438 28.5522C5.61428 28.0521 5.33333 27.3739 5.33333 26.6666V5.33329C5.33333 4.62605 5.61428 3.94777 6.11438 3.44767C6.61447 2.94758 7.29275 2.66663 7.99999 2.66663H16ZM14.6813 15.7973C14.3622 17.828 13.3002 19.6679 11.7013 20.96C10.5187 21.9146 11.6 23.788 13.0187 23.2426C14.9371 22.5038 17.0616 22.5038 18.98 23.2426C20.3987 23.7893 21.48 21.916 20.2973 20.96C18.6985 19.6679 17.6365 17.828 17.3173 15.7973C17.0813 14.296 14.9173 14.2946 14.6813 15.7973ZM16 19.0706L17.0747 20.9293H14.928L16 19.0706ZM18.6667 2.72396C19.1718 2.8311 19.635 3.08261 20 3.44796L25.8853 9.33329C26.2507 9.69826 26.5022 10.1615 26.6093 10.6666H18.6667V2.72396Z" fill="#99A1AF"/>
</svg>
