<svg width="40" height="40" viewBox="0 0 40 40" fill="none" xmlns="http://www.w3.org/2000/svg">
<mask id="mask0_778_630" style="mask-type:alpha" maskUnits="userSpaceOnUse" x="0" y="0" width="40" height="40">
<rect width="40" height="40" fill="#D9D9D9"/>
</mask>
<g mask="url(#mask0_778_630)">
<path d="M21.7067 19.167L24.165 17.3753L26.5817 19.167L25.6234 16.3337L28.0817 14.542H25.0817L24.165 11.667L23.2484 14.542H20.2067L22.665 16.3337L21.7067 19.167ZM19.9984 28.3337C22.3039 28.3337 24.2692 27.5281 25.8942 25.917C27.5192 24.3059 28.3317 22.3337 28.3317 20.0003C28.3317 19.7781 28.3248 19.5559 28.3109 19.3337C28.297 19.1114 28.2623 18.8892 28.2067 18.667C27.9012 19.9725 27.2206 21.0489 26.165 21.8962C25.1095 22.7434 23.8734 23.167 22.4567 23.167C20.79 23.167 19.3873 22.5975 18.2484 21.4587C17.1095 20.3198 16.54 18.917 16.54 17.2503C16.54 15.9725 16.9012 14.8267 17.6234 13.8128C18.3456 12.7989 19.29 12.0837 20.4567 11.667H19.9984C17.665 11.667 15.6928 12.4795 14.0817 14.1045C12.4706 15.7295 11.665 17.6948 11.665 20.0003C11.665 22.3337 12.4706 24.3059 14.0817 25.917C15.6928 27.5281 17.665 28.3337 19.9984 28.3337ZM19.9984 38.8337L14.415 33.3337H6.66504V25.5837L1.16504 20.0003L6.66504 14.417V6.66699H14.415L19.9984 1.16699L25.5817 6.66699H33.3317V14.417L38.8317 20.0003L33.3317 25.5837V33.3337H25.5817L19.9984 38.8337ZM19.9984 34.167L24.165 30.0003H29.9984V24.167L34.165 20.0003L29.9984 15.8337V10.0003H24.165L19.9984 5.83366L15.8317 10.0003H9.99837V15.8337L5.83171 20.0003L9.99837 24.167V30.0003H15.8317L19.9984 34.167Z" fill="white"/>
</g>
</svg>
