<svg width="17" height="16" viewBox="0 0 17 16" fill="none" xmlns="http://www.w3.org/2000/svg">
<path fill-rule="evenodd" clip-rule="evenodd" d="M11.258 3.15196L12.478 4.37196C14.2707 6.16529 15.1667 7.06129 15.1667 8.17463C15.1667 9.28863 14.2707 10.1846 12.478 11.9773C10.6847 13.7706 9.78868 14.6666 8.67468 14.6666C7.56135 14.6666 6.66468 13.7706 4.87201 11.978L3.65201 10.758C2.62201 9.72729 2.10668 9.21263 1.91535 8.54396C1.72335 7.87529 1.88735 7.16529 2.21535 5.74596L2.40401 4.92729C2.67935 3.73263 2.81735 3.13529 3.22601 2.72596C3.63468 2.31663 4.23268 2.17929 5.42735 1.90396L6.24601 1.71463C7.66601 1.38729 8.37535 1.22329 9.04401 1.41463C9.71268 1.60663 10.228 2.12196 11.258 3.15196ZM7.93068 9.55196C7.48201 9.10396 7.48535 8.45996 7.75401 7.94996C7.6875 7.85389 7.65674 7.73756 7.66706 7.62117C7.67739 7.50478 7.72815 7.39568 7.81054 7.31281C7.89292 7.22995 8.00173 7.17856 8.11806 7.16757C8.23439 7.15657 8.35089 7.18667 8.44735 7.25263C8.67401 7.13263 8.92268 7.06863 9.17068 7.07129C9.30329 7.07253 9.42997 7.1264 9.52287 7.22104C9.61576 7.31568 9.66725 7.44335 9.66601 7.57596C9.66477 7.70857 9.61091 7.83525 9.51627 7.92815C9.42162 8.02104 9.29395 8.07253 9.16135 8.07129C9.00698 8.077 8.86109 8.14335 8.75535 8.25596C8.49735 8.51396 8.56468 8.77263 8.63735 8.84529C8.71068 8.91796 8.96868 8.98529 9.22668 8.72729C9.74935 8.20463 10.652 8.03129 11.23 8.60929C11.6787 9.05796 11.6753 9.70196 11.4067 10.212C11.4728 10.3081 11.5032 10.4242 11.4927 10.5404C11.4822 10.6565 11.4314 10.7654 11.3491 10.848C11.2668 10.9307 11.1583 10.982 11.0422 10.9931C10.9261 11.0041 10.8098 10.9743 10.7133 10.9086C10.4142 11.0728 10.0672 11.1275 9.73201 11.0633C9.60206 11.0366 9.48803 10.9594 9.41502 10.8486C9.342 10.7378 9.31598 10.6026 9.34268 10.4726C9.36938 10.3427 9.44661 10.2286 9.55738 10.1556C9.66815 10.0826 9.80339 10.0566 9.93335 10.0833C10.0513 10.108 10.242 10.0693 10.4053 9.90596C10.6633 9.64729 10.596 9.38929 10.5233 9.31663C10.45 9.24396 10.192 9.17663 9.93401 9.43463C9.41135 9.95729 8.50868 10.1306 7.93068 9.55196ZM7.18001 6.86196C7.30381 6.73812 7.40199 6.59112 7.46897 6.42933C7.53595 6.26755 7.57041 6.09416 7.57038 5.91906C7.57035 5.74396 7.53583 5.57058 7.46879 5.40882C7.40176 5.24706 7.30352 5.10009 7.17968 4.97629C7.05584 4.8525 6.90884 4.75431 6.74705 4.68733C6.58527 4.62035 6.41188 4.5859 6.23678 4.58593C6.06168 4.58596 5.8883 4.62048 5.72654 4.68751C5.56478 4.75455 5.41781 4.85279 5.29401 4.97663C5.044 5.22673 4.90358 5.5659 4.90365 5.91953C4.90371 6.27316 5.04425 6.61228 5.29435 6.86229C5.54445 7.1123 5.88362 7.25272 6.23725 7.25266C6.59088 7.2526 6.93 7.11206 7.18001 6.86196Z" fill="#615FFF"/>
</svg>
