<svg width="42" height="42" viewBox="0 0 42 42" fill="none" xmlns="http://www.w3.org/2000/svg">
<path d="M18.8331 4.81012C18.9063 4.41798 19.1144 4.06381 19.4213 3.80894C19.7282 3.55407 20.1146 3.41455 20.5135 3.41455C20.9124 3.41455 21.2987 3.55407 21.6056 3.80894C21.9125 4.06381 22.1206 4.41798 22.1938 4.81012L23.9905 14.3112C24.1181 14.9866 24.4463 15.608 24.9324 16.094C25.4185 16.5801 26.0398 16.9084 26.7153 17.036L36.2163 18.8326C36.6085 18.9059 36.9626 19.1139 37.2175 19.4208C37.4724 19.7277 37.6119 20.1141 37.6119 20.513C37.6119 20.9119 37.4724 21.2983 37.2175 21.6051C36.9626 21.912 36.6085 22.1201 36.2163 22.1934L26.7153 23.99C26.0398 24.1176 25.4185 24.4458 24.9324 24.9319C24.4463 25.418 24.1181 26.0393 23.9905 26.7148L22.1938 36.2158C22.1206 36.608 21.9125 36.9622 21.6056 37.217C21.2987 37.4719 20.9124 37.6114 20.5135 37.6114C20.1146 37.6114 19.7282 37.4719 19.4213 37.217C19.1144 36.9622 18.9063 36.608 18.8331 36.2158L17.0365 26.7148C16.9089 26.0393 16.5806 25.418 16.0945 24.9319C15.6085 24.4458 14.9871 24.1176 14.3116 23.99L4.81061 22.1934C4.41847 22.1201 4.0643 21.912 3.80943 21.6051C3.55456 21.2983 3.41504 20.9119 3.41504 20.513C3.41504 20.1141 3.55456 19.7277 3.80943 19.4208C4.0643 19.1139 4.41847 18.9059 4.81061 18.8326L14.3116 17.036C14.9871 16.9084 15.6085 16.5801 16.0945 16.094C16.5806 15.608 16.9089 14.9866 17.0365 14.3112L18.8331 4.81012Z" fill="#004257"/>
<path d="M34.1889 3.41864V10.2564V3.41864Z" fill="#004257"/>
<path d="M37.6078 6.83751H30.7701H37.6078Z" fill="#004257"/>
<path d="M6.838 37.6073C8.72619 37.6073 10.2569 36.0766 10.2569 34.1885C10.2569 32.3003 8.72619 30.7696 6.838 30.7696C4.94981 30.7696 3.41913 32.3003 3.41913 34.1885C3.41913 36.0766 4.94981 37.6073 6.838 37.6073Z" fill="#004257"/>
<path d="M34.1884 3.41895V10.2567M37.6073 6.83781H30.7695" stroke="#004257" stroke-width="4.10264" stroke-linecap="round" stroke-linejoin="round"/>
</svg>
