<svg width="32" height="32" viewBox="0 0 32 32" fill="none" xmlns="http://www.w3.org/2000/svg">
<path d="M6.66667 18.6667C6.28889 18.6667 5.97244 18.5387 5.71733 18.2827C5.46222 18.0267 5.33422 17.7103 5.33333 17.3334C5.33244 16.9565 5.46044 16.64 5.71733 16.384C5.97422 16.128 6.29067 16 6.66667 16H13.3333C13.7111 16 14.028 16.128 14.284 16.384C14.54 16.64 14.6676 16.9565 14.6667 17.3334C14.6658 17.7103 14.5378 18.0272 14.2827 18.284C14.0276 18.5409 13.7111 18.6685 13.3333 18.6667H6.66667ZM6.66667 13.3334C6.28889 13.3334 5.97244 13.2054 5.71733 12.9494C5.46222 12.6934 5.33422 12.3769 5.33333 12C5.33244 11.6232 5.46044 11.3067 5.71733 11.0507C5.97422 10.7947 6.29067 10.6667 6.66667 10.6667H18.6667C19.0444 10.6667 19.3613 10.7947 19.6173 11.0507C19.8733 11.3067 20.0009 11.6232 20 12C19.9991 12.3769 19.8711 12.6938 19.616 12.9507C19.3609 13.2076 19.0444 13.3352 18.6667 13.3334H6.66667ZM6.66667 8.00004C6.28889 8.00004 5.97244 7.87204 5.71733 7.61604C5.46222 7.36004 5.33422 7.0436 5.33333 6.66671C5.33244 6.28982 5.46044 5.97337 5.71733 5.71737C5.97422 5.46137 6.29067 5.33337 6.66667 5.33337H18.6667C19.0444 5.33337 19.3613 5.46137 19.6173 5.71737C19.8733 5.97337 20.0009 6.28982 20 6.66671C19.9991 7.0436 19.8711 7.36049 19.616 7.61737C19.3609 7.87426 19.0444 8.00182 18.6667 8.00004H6.66667ZM17.3333 25.3334V23.1334C17.3333 22.9556 17.3667 22.7836 17.4333 22.6174C17.5 22.4512 17.6 22.3009 17.7333 22.1667L24.7 15.2334C24.9 15.0334 25.1222 14.8889 25.3667 14.8C25.6111 14.7112 25.8556 14.6667 26.1 14.6667C26.3667 14.6667 26.6222 14.7169 26.8667 14.8174C27.1111 14.9178 27.3333 15.0676 27.5333 15.2667L28.7667 16.5C28.9444 16.7 29.0836 16.9223 29.184 17.1667C29.2844 17.4112 29.3342 17.6556 29.3333 17.9C29.3324 18.1445 29.288 18.3947 29.2 18.6507C29.112 18.9067 28.9676 19.1343 28.7667 19.3334L21.8333 26.2667C21.7 26.4 21.5502 26.5 21.384 26.5667C21.2178 26.6334 21.0453 26.6667 20.8667 26.6667H18.6667C18.2889 26.6667 17.9724 26.5392 17.7173 26.284C17.4622 26.0289 17.3342 25.712 17.3333 25.3334ZM19.3333 24.6667H20.6L24.6333 20.6L24.0333 19.9667L23.4 19.3667L19.3333 23.4V24.6667ZM24.0333 19.9667L23.4 19.3667L24.6333 20.6L24.0333 19.9667Z" fill="#99A1AF"/>
</svg>
